<svg xmlns="http://www.w3.org/2000/svg" width="176.922" height="160.403" viewBox="0 0 176.922 160.403"><path d="M769.685,609.713H704.614s-1.319-19.345,6.485-19.565,6.925,8.573,16.707-3.517S749.46,575.2,751,582.343s-2.968,12.86,5.276,11.1S776.39,596.3,769.685,609.713Z" transform="translate(-655.521 -449.791)" fill="#bebebe"/><path d="M812.018,614.289a22.927,22.927,0,0,0-23.07,13.65c-.368.844.877,1.581,1.248.729a21.5,21.5,0,0,1,21.823-12.934c.926.084.92-1.362,0-1.445Z" transform="translate(-699.241 -468.962)" fill="#fff"/><path d="M716.943,604.334a23.6,23.6,0,0,1,5.607,17.684c-.091.925,1.355.919,1.445,0a25.012,25.012,0,0,0-6.03-18.705c-.612-.7-1.63.323-1.022,1.022Z" transform="translate(-661.858 -463.199)" fill="#fff"/><path d="M778.535,579.009a96.427,96.427,0,0,0-9.876,22.969q-.972,3.436-1.682,6.939c-.185.908,1.207,1.3,1.393.384a94.909,94.909,0,0,1,8.042-23.392q1.57-3.147,3.371-6.171a.723.723,0,0,0-1.248-.729Z" transform="translate(-687.879 -450.549)" fill="#fff"/><path d="M745.884,391.6v50.788H608.108a4.321,4.321,0,0,1-4.322-4.322V387.277H741.562a4.321,4.321,0,0,1,4.322,4.324Z" transform="translate(-603.304 -351.347)" fill="#ffb000"/><rect width="0.963" height="69.363" transform="translate(77.793 91.04)" fill="#949494"/><path d="M755,426.5H607.121a4.34,4.34,0,0,1-4.335-4.335V360.023a4.34,4.34,0,0,1,4.335-4.335H755a4.34,4.34,0,0,1,4.335,4.335v62.138A4.34,4.34,0,0,1,755,426.5ZM607.121,356.651a3.376,3.376,0,0,0-3.372,3.372v62.138a3.376,3.376,0,0,0,3.372,3.372H755a3.376,3.376,0,0,0,3.372-3.372V360.023A3.376,3.376,0,0,0,755,356.651Z" transform="translate(-602.786 -334.974)" fill="#ffb000"/><path d="M738.417,420.578H651.231a1.445,1.445,0,0,1,0-2.89h87.186a1.445,1.445,0,0,1,0,2.89Z" transform="translate(-627.146 -367.11)" fill="#fff"/><path d="M738.417,445.578H651.231a1.445,1.445,0,0,1,0-2.89h87.186a1.445,1.445,0,0,1,0,2.89Z" transform="translate(-627.146 -380.067)" fill="#fff"/><path d="M738.417,470.578H651.231a1.445,1.445,0,0,1,0-2.89h87.186a1.445,1.445,0,0,1,0,2.89Z" transform="translate(-627.146 -393.025)" fill="#fff"/><circle cx="15.831" cy="15.831" r="15.831" transform="translate(140.097 5.162)" fill="#949494"/><path d="M917.675,338.445l-7.923-7.923a1.377,1.377,0,1,1,1.947-1.947l5.844,5.844,18.648-21.265a1.377,1.377,0,1,1,2.07,1.815Z" transform="translate(-761.681 -312.685)" fill="#ffb000"/></svg>