<?xml version="1.0"?>
<svg xmlns="http://www.w3.org/2000/svg" id="Out_line" data-name="Out line" viewBox="0 0 512 512" width="512" height="512"><title>earn-coin-money-profit-dollar</title><path d="M344,56c-83.813,0-152,68.187-152,152a152.55791,152.55791,0,0,0,3.83008,34.04736A76.02558,76.02558,0,0,0,100.792,248H96v-8a7.99977,7.99977,0,0,0-8-8H16v16H80V416H16v16H88a7.99977,7.99977,0,0,0,8-8V402.16089l192.54834,46.47729a87.92359,87.92359,0,0,0,62.06055-7.89648L401.41162,413.647A87.84074,87.84074,0,0,0,448,336V318.74194A151.59481,151.59481,0,0,0,496,208C496,124.187,427.813,56,344,56Zm88,280a71.87121,71.87121,0,0,1-38.11768,63.52979L343.07959,426.624a71.91519,71.91519,0,0,1-50.77686,6.46045L96,385.70117V264h8a7.99877,7.99877,0,0,0,5.65674-2.34326,59.95113,59.95113,0,0,1,84.68652,0,8,8,0,0,0,11.31348,0l46.05908-46.05908a25.94129,25.94129,0,0,1,36.68652,36.68652l-20.77343,20.77344a45.91877,45.91877,0,0,0,22.84814,77.36914l43.84668,9.39551A7.99227,7.99227,0,0,0,336,360h8a151.16908,151.16908,0,0,0,88-28.12988Zm-80-48V271.77246A35.99756,35.99756,0,0,0,348,200h-8a20,20,0,0,1,0-40h8a20.02292,20.02292,0,0,1,20,20v4h16v-4a36.04748,36.04748,0,0,0-32-35.77246V128H336v16.22754A35.99756,35.99756,0,0,0,340,216h8a20,20,0,0,1,0,40h-8a20.02292,20.02292,0,0,1-20-20v-4h-8.04926a41.93781,41.93781,0,0,0-71.5484-27.71582l-.34185.3418a103.99838,103.99838,0,1,1,36.4497,82.49731,31.18982,31.18982,0,0,1,2.43219-2.7522l20.77344-20.77343a41.98379,41.98379,0,0,0,8.13355-11.43079A36.06923,36.06923,0,0,0,336,271.77246V288Zm-8,56h-7.15234l-43.01807-9.21777a29.51543,29.51543,0,0,1-22.4248-20.78174,30.2087,30.2087,0,0,1-1.13117-11.31568A120.00281,120.00281,0,1,0,224,208c0,4.02954.20227,8.07861.60229,12.084L210.51514,234.1709A136.80646,136.80646,0,0,1,208,208c0-74.99072,61.00928-136,136-136s136,61.00928,136,136S418.99072,344,344,344Z"/></svg>
