<svg xmlns="http://www.w3.org/2000/svg" width="109.027" height="201.9" viewBox="0 0 109.027 201.9"><path d="M817.407,507.117a5.027,5.027,0,0,1,2.208-7.385l-1.3-17.818,8.1,4.535-.012,16.224a5.054,5.054,0,0,1-9,4.443Z" transform="translate(-766.972 -394.748)" fill="#ffb8b8"/><path d="M815.779,389.137l-2.215,56.7,9-.5,2-59.49-1.9-.893a4.832,4.832,0,0,0-6.886,4.183Z" transform="translate(-763.329 -346.03)" fill="#ffb000"/><path d="M548.439,488.553h6.129l2.916-23.64h-9.046Z" transform="translate(-468.159 -292.343)" fill="#ffb8b8"/><path d="M542.447,508.7h-11.82v7.442h19.262a7.442,7.442,0,0,0-7.441-7.442Z" transform="translate(-451.661 -314.239)" fill="#2f2e41"/><path d="M632.247,476.09l5.562,2.575,12.578-20.227-8.209-3.8Z" transform="translate(-602.961 -287.204)" fill="#ffb8b8"/><path d="M7.442,7.442h11.82V0H0A7.442,7.442,0,0,0,7.442,7.442Z" transform="translate(43.183 201.594) rotate(-155.159)" fill="#2f2e41"/><path d="M810.883,505.7l-6.321,72.133-8.5-1-6.281-65.889-34.712,62.89-9-2.5s28.963-86.636,31.213-93.885c2.466-7.946,22-11,22-11l.75-.75C808.423,477,811.785,491.655,810.883,505.7Z" transform="translate(-716.052 -386.64)" fill="#2f2e41"/><ellipse cx="12.279" cy="12.278" rx="12.279" ry="12.278" transform="translate(48.881 8.109)" fill="#ffb8b8"/><path d="M758.064,382.7l9.467,49.342s12.968-2.59,17.587-5.709c1.83-1.24,3.489-2.52,4.889-3.68a60.62,60.62,0,0,0,4.519-4.109s-3.32-16.3-4.5-20.667c-1.376-5.055-6.1-10.944-9.772-14.956a10.871,10.871,0,0,0-10.735-3.178Z" transform="translate(-705.548 -343.479)" fill="#ffb000"/><path d="M778.206,446.486c1.83-1.24,3.489-2.52,4.889-3.68-.5-7.469-11.508-23.106-15.967-23.106C767.127,419.7,766.073,443.8,778.206,446.486Z" transform="translate(-698.635 -363.636)" opacity="0.2"/><path d="M732.277,490.549a5.027,5.027,0,0,1-2.638-7.243l-11.678-13.519,9.206-1.2,9.678,13.022a5.054,5.054,0,0,1-4.568,8.939Z" transform="translate(-630.058 -388.084)" fill="#ffb8b8"/><path d="M731.5,381.225a8.158,8.158,0,0,1,1.513.173,6.247,6.247,0,0,1,4.458,3.9l14.437,30.159,15.5,16.5-7.749,6.249-24.5-22-9.786-26.636a6.376,6.376,0,0,1,6.126-8.345Z" transform="translate(-661.931 -344.395)" fill="#ffb000"/><path d="M808.494,340.106c-1.747-2.616-3.127-6.243-1.2-8.732,1.9-2.457,5.645-2.095,8.554-3.182,4.051-1.514,6.4-6.274,5.668-10.536a12.5,12.5,0,0,0-8.231-9.242,17.821,17.821,0,0,0-12.664.689,19.339,19.339,0,0,0-10.9,11.036,14.868,14.868,0,0,0,2.844,14.912c3.931,4.139,10.1,5.241,15.809,5.175" transform="translate(-748.062 -307.554)" fill="#2f2e41"/><path d="M888.038,343.262c-.5,2.8-3.566,4.383-6.384,4.731s-5.733-.1-8.476.634c-4.836,1.292-8.026,5.943-9.782,10.631s-2.534,9.748-4.815,14.2-6.7,8.384-11.693,7.968a12.864,12.864,0,0,0,24.193-.785c1.833-5.658-.271-12.4,2.934-17.414,1.773-2.772,4.836-4.4,7.788-5.855s6.052-2.944,8.031-5.573,2.375-6.78-.064-8.989" transform="translate(-846.888 -325.187)" fill="#2f2e41"/></svg>